<svg id="mermaid-svg" width="100%" xmlns="http://www.w3.org/2000/svg" style="max-width: 413.7710876464844px;" viewBox="0 0 413.7710876464844 629" role="graphics-document document" aria-roledescription="er" xmlns:xlink="http://www.w3.org/1999/xlink"><style xmlns="http://www.w3.org/1999/xhtml">@import url("https://cdnjs.cloudflare.com/ajax/libs/font-awesome/6.7.2/css/all.min.css");</style><style>#mermaid-svg{font-family:"trebuchet ms",verdana,arial,sans-serif;font-size:16px;fill:#333;}#mermaid-svg .error-icon{fill:#552222;}#mermaid-svg .error-text{fill:#552222;stroke:#552222;}#mermaid-svg .edge-thickness-normal{stroke-width:1px;}#mermaid-svg .edge-thickness-thick{stroke-width:3.5px;}#mermaid-svg .edge-pattern-solid{stroke-dasharray:0;}#mermaid-svg .edge-thickness-invisible{stroke-width:0;fill:none;}#mermaid-svg .edge-pattern-dashed{stroke-dasharray:3;}#mermaid-svg .edge-pattern-dotted{stroke-dasharray:2;}#mermaid-svg .marker{fill:#333333;stroke:#333333;}#mermaid-svg .marker.cross{stroke:#333333;}#mermaid-svg svg{font-family:"trebuchet ms",verdana,arial,sans-serif;font-size:16px;}#mermaid-svg p{margin:0;}#mermaid-svg .entityBox{fill:#ECECFF;stroke:#9370DB;}#mermaid-svg .attributeBoxOdd{fill:#ffffff;stroke:#9370DB;}#mermaid-svg .attributeBoxEven{fill:#f2f2f2;stroke:#9370DB;}#mermaid-svg .relationshipLabelBox{fill:hsl(80, 100%, 96.2745098039%);opacity:0.7;background-color:hsl(80, 100%, 96.2745098039%);}#mermaid-svg .relationshipLabelBox rect{opacity:0.5;}#mermaid-svg .relationshipLine{stroke:#333333;}#mermaid-svg .entityTitleText{text-anchor:middle;font-size:18px;fill:#333;}#mermaid-svg #MD_PARENT_START{fill:#f5f5f5!important;stroke:#333333!important;stroke-width:1;}#mermaid-svg #MD_PARENT_END{fill:#f5f5f5!important;stroke:#333333!important;stroke-width:1;}#mermaid-svg :root{--mermaid-font-family:"trebuchet ms",verdana,arial,sans-serif;}</style><g/><defs><marker id="MD_PARENT_START" refX="0" refY="7" markerWidth="190" markerHeight="240" orient="auto"><path d="M 18,7 L9,13 L1,7 L9,1 Z"/></marker></defs><defs><marker id="MD_PARENT_END" refX="19" refY="7" markerWidth="20" markerHeight="28" orient="auto"><path d="M 18,7 L9,13 L1,7 L9,1 Z"/></marker></defs><defs><marker id="ONLY_ONE_START" refX="0" refY="9" markerWidth="18" markerHeight="18" orient="auto"><path stroke="gray" fill="none" d="M9,0 L9,18 M15,0 L15,18"/></marker></defs><defs><marker id="ONLY_ONE_END" refX="18" refY="9" markerWidth="18" markerHeight="18" orient="auto"><path stroke="gray" fill="none" d="M3,0 L3,18 M9,0 L9,18"/></marker></defs><defs><marker id="ZERO_OR_ONE_START" refX="0" refY="9" markerWidth="30" markerHeight="18" orient="auto"><circle stroke="gray" fill="white" cx="21" cy="9" r="6"/><path stroke="gray" fill="none" d="M9,0 L9,18"/></marker></defs><defs><marker id="ZERO_OR_ONE_END" refX="30" refY="9" markerWidth="30" markerHeight="18" orient="auto"><circle stroke="gray" fill="white" cx="9" cy="9" r="6"/><path stroke="gray" fill="none" d="M21,0 L21,18"/></marker></defs><defs><marker id="ONE_OR_MORE_START" refX="18" refY="18" markerWidth="45" markerHeight="36" orient="auto"><path stroke="gray" fill="none" d="M0,18 Q 18,0 36,18 Q 18,36 0,18 M42,9 L42,27"/></marker></defs><defs><marker id="ONE_OR_MORE_END" refX="27" refY="18" markerWidth="45" markerHeight="36" orient="auto"><path stroke="gray" fill="none" d="M3,9 L3,27 M9,18 Q27,0 45,18 Q27,36 9,18"/></marker></defs><defs><marker id="ZERO_OR_MORE_START" refX="18" refY="18" markerWidth="57" markerHeight="36" orient="auto"><circle stroke="gray" fill="white" cx="48" cy="18" r="6"/><path stroke="gray" fill="none" d="M0,18 Q18,0 36,18 Q18,36 0,18"/></marker></defs><defs><marker id="ZERO_OR_MORE_END" refX="39" refY="18" markerWidth="57" markerHeight="36" orient="auto"><circle stroke="gray" fill="white" cx="9" cy="18" r="6"/><path stroke="gray" fill="none" d="M21,18 Q39,0 57,18 Q39,36 21,18"/></marker></defs><path class="er relationshipLine" d="M86.397,212L86.397,227.333C86.397,242.667,86.397,273.333,92.547,297.884C98.698,322.435,110.999,340.869,117.149,350.087L123.3,359.304" marker-end="url(#ZERO_OR_MORE_END)" marker-start="url(#ONLY_ONE_START)" style="stroke: gray; fill: none;"/><path class="er relationshipLine" d="M323.282,254L323.282,262.333C323.282,270.667,323.282,287.333,317.132,304.884C310.981,322.435,298.68,340.869,292.529,350.087L286.379,359.304" marker-end="url(#ZERO_OR_MORE_END)" marker-start="url(#ONLY_ONE_START)" style="stroke: gray; fill: none;"/><g id="entity-LIBRO-751881da-053f-5673-b70b-33bddab46784" transform="translate(252.79318237304688,20 )"><rect class="er entityBox" x="0" y="0" width="140.9779052734375" height="234"/><text class="er entityLabel" id="text-entity-LIBRO-751881da-053f-5673-b70b-33bddab46784" x="0" y="0" transform="translate(70.48895263671875,12)" style="dominant-baseline: middle; text-anchor: middle; font-size: 12px;">LIBRO</text><rect class="er attributeBoxOdd" x="0" y="24" width="35.245819091796875" height="21"/><text class="er entityLabel" id="text-entity-LIBRO-751881da-053f-5673-b70b-33bddab46784-attr-1-type" x="0" y="0" transform="translate(5,34.5)" style="dominant-baseline: middle; font-size: 10.2px;">int</text><rect class="er attributeBoxOdd" x="35.245819091796875" y="24" width="81.375" height="21"/><text class="er entityLabel" id="text-entity-LIBRO-751881da-053f-5673-b70b-33bddab46784-attr-1-name" x="0" y="0" transform="translate(40.245819091796875,34.5)" style="dominant-baseline: middle; font-size: 10.2px;">id</text><rect class="er attributeBoxOdd" x="116.62081909179688" y="24" width="24.357086181640625" height="21"/><text class="er entityLabel" id="text-entity-LIBRO-751881da-053f-5673-b70b-33bddab46784-attr-1-key" x="0" y="0" transform="translate(121.62081909179688,34.5)" style="dominant-baseline: middle; font-size: 10.2px;">PK</text><rect class="er attributeBoxEven" x="0" y="45" width="35.245819091796875" height="21"/><text class="er entityLabel" id="text-entity-LIBRO-751881da-053f-5673-b70b-33bddab46784-attr-2-type" x="0" y="0" transform="translate(5,55.5)" style="dominant-baseline: middle; font-size: 10.2px;">string</text><rect class="er attributeBoxEven" x="35.245819091796875" y="45" width="81.375" height="21"/><text class="er entityLabel" id="text-entity-LIBRO-751881da-053f-5673-b70b-33bddab46784-attr-2-name" x="0" y="0" transform="translate(40.245819091796875,55.5)" style="dominant-baseline: middle; font-size: 10.2px;">titulo</text><rect class="er attributeBoxEven" x="116.62081909179688" y="45" width="24.357086181640625" height="21"/><text class="er entityLabel" id="text-entity-LIBRO-751881da-053f-5673-b70b-33bddab46784-attr-2-key" x="0" y="0" transform="translate(121.62081909179688,55.5)" style="dominant-baseline: middle; font-size: 10.2px;"/><rect class="er attributeBoxOdd" x="0" y="66" width="35.245819091796875" height="21"/><text class="er entityLabel" id="text-entity-LIBRO-751881da-053f-5673-b70b-33bddab46784-attr-3-type" x="0" y="0" transform="translate(5,76.5)" style="dominant-baseline: middle; font-size: 10.2px;">string</text><rect class="er attributeBoxOdd" x="35.245819091796875" y="66" width="81.375" height="21"/><text class="er entityLabel" id="text-entity-LIBRO-751881da-053f-5673-b70b-33bddab46784-attr-3-name" x="0" y="0" transform="translate(40.245819091796875,76.5)" style="dominant-baseline: middle; font-size: 10.2px;">autor</text><rect class="er attributeBoxOdd" x="116.62081909179688" y="66" width="24.357086181640625" height="21"/><text class="er entityLabel" id="text-entity-LIBRO-751881da-053f-5673-b70b-33bddab46784-attr-3-key" x="0" y="0" transform="translate(121.62081909179688,76.5)" style="dominant-baseline: middle; font-size: 10.2px;"/><rect class="er attributeBoxEven" x="0" y="87" width="35.245819091796875" height="21"/><text class="er entityLabel" id="text-entity-LIBRO-751881da-053f-5673-b70b-33bddab46784-attr-4-type" x="0" y="0" transform="translate(5,97.5)" style="dominant-baseline: middle; font-size: 10.2px;">string</text><rect class="er attributeBoxEven" x="35.245819091796875" y="87" width="81.375" height="21"/><text class="er entityLabel" id="text-entity-LIBRO-751881da-053f-5673-b70b-33bddab46784-attr-4-name" x="0" y="0" transform="translate(40.245819091796875,97.5)" style="dominant-baseline: middle; font-size: 10.2px;">isbn</text><rect class="er attributeBoxEven" x="116.62081909179688" y="87" width="24.357086181640625" height="21"/><text class="er entityLabel" id="text-entity-LIBRO-751881da-053f-5673-b70b-33bddab46784-attr-4-key" x="0" y="0" transform="translate(121.62081909179688,97.5)" style="dominant-baseline: middle; font-size: 10.2px;">UK</text><rect class="er attributeBoxOdd" x="0" y="108" width="35.245819091796875" height="21"/><text class="er entityLabel" id="text-entity-LIBRO-751881da-053f-5673-b70b-33bddab46784-attr-5-type" x="0" y="0" transform="translate(5,118.5)" style="dominant-baseline: middle; font-size: 10.2px;">string</text><rect class="er attributeBoxOdd" x="35.245819091796875" y="108" width="81.375" height="21"/><text class="er entityLabel" id="text-entity-LIBRO-751881da-053f-5673-b70b-33bddab46784-attr-5-name" x="0" y="0" transform="translate(40.245819091796875,118.5)" style="dominant-baseline: middle; font-size: 10.2px;">descripcion</text><rect class="er attributeBoxOdd" x="116.62081909179688" y="108" width="24.357086181640625" height="21"/><text class="er entityLabel" id="text-entity-LIBRO-751881da-053f-5673-b70b-33bddab46784-attr-5-key" x="0" y="0" transform="translate(121.62081909179688,118.5)" style="dominant-baseline: middle; font-size: 10.2px;"/><rect class="er attributeBoxEven" x="0" y="129" width="35.245819091796875" height="21"/><text class="er entityLabel" id="text-entity-LIBRO-751881da-053f-5673-b70b-33bddab46784-attr-6-type" x="0" y="0" transform="translate(5,139.5)" style="dominant-baseline: middle; font-size: 10.2px;">string</text><rect class="er attributeBoxEven" x="35.245819091796875" y="129" width="81.375" height="21"/><text class="er entityLabel" id="text-entity-LIBRO-751881da-053f-5673-b70b-33bddab46784-attr-6-name" x="0" y="0" transform="translate(40.245819091796875,139.5)" style="dominant-baseline: middle; font-size: 10.2px;">portadaUrl</text><rect class="er attributeBoxEven" x="116.62081909179688" y="129" width="24.357086181640625" height="21"/><text class="er entityLabel" id="text-entity-LIBRO-751881da-053f-5673-b70b-33bddab46784-attr-6-key" x="0" y="0" transform="translate(121.62081909179688,139.5)" style="dominant-baseline: middle; font-size: 10.2px;"/><rect class="er attributeBoxOdd" x="0" y="150" width="35.245819091796875" height="21"/><text class="er entityLabel" id="text-entity-LIBRO-751881da-053f-5673-b70b-33bddab46784-attr-7-type" x="0" y="0" transform="translate(5,160.5)" style="dominant-baseline: middle; font-size: 10.2px;">int</text><rect class="er attributeBoxOdd" x="35.245819091796875" y="150" width="81.375" height="21"/><text class="er entityLabel" id="text-entity-LIBRO-751881da-053f-5673-b70b-33bddab46784-attr-7-name" x="0" y="0" transform="translate(40.245819091796875,160.5)" style="dominant-baseline: middle; font-size: 10.2px;">anioPublicacion</text><rect class="er attributeBoxOdd" x="116.62081909179688" y="150" width="24.357086181640625" height="21"/><text class="er entityLabel" id="text-entity-LIBRO-751881da-053f-5673-b70b-33bddab46784-attr-7-key" x="0" y="0" transform="translate(121.62081909179688,160.5)" style="dominant-baseline: middle; font-size: 10.2px;"/><rect class="er attributeBoxEven" x="0" y="171" width="35.245819091796875" height="21"/><text class="er entityLabel" id="text-entity-LIBRO-751881da-053f-5673-b70b-33bddab46784-attr-8-type" x="0" y="0" transform="translate(5,181.5)" style="dominant-baseline: middle; font-size: 10.2px;">string</text><rect class="er attributeBoxEven" x="35.245819091796875" y="171" width="81.375" height="21"/><text class="er entityLabel" id="text-entity-LIBRO-751881da-053f-5673-b70b-33bddab46784-attr-8-name" x="0" y="0" transform="translate(40.245819091796875,181.5)" style="dominant-baseline: middle; font-size: 10.2px;">editorial</text><rect class="er attributeBoxEven" x="116.62081909179688" y="171" width="24.357086181640625" height="21"/><text class="er entityLabel" id="text-entity-LIBRO-751881da-053f-5673-b70b-33bddab46784-attr-8-key" x="0" y="0" transform="translate(121.62081909179688,181.5)" style="dominant-baseline: middle; font-size: 10.2px;"/><rect class="er attributeBoxOdd" x="0" y="192" width="35.245819091796875" height="21"/><text class="er entityLabel" id="text-entity-LIBRO-751881da-053f-5673-b70b-33bddab46784-attr-9-type" x="0" y="0" transform="translate(5,202.5)" style="dominant-baseline: middle; font-size: 10.2px;">string</text><rect class="er attributeBoxOdd" x="35.245819091796875" y="192" width="81.375" height="21"/><text class="er entityLabel" id="text-entity-LIBRO-751881da-053f-5673-b70b-33bddab46784-attr-9-name" x="0" y="0" transform="translate(40.245819091796875,202.5)" style="dominant-baseline: middle; font-size: 10.2px;">genero</text><rect class="er attributeBoxOdd" x="116.62081909179688" y="192" width="24.357086181640625" height="21"/><text class="er entityLabel" id="text-entity-LIBRO-751881da-053f-5673-b70b-33bddab46784-attr-9-key" x="0" y="0" transform="translate(121.62081909179688,202.5)" style="dominant-baseline: middle; font-size: 10.2px;"/><rect class="er attributeBoxEven" x="0" y="213" width="35.245819091796875" height="21"/><text class="er entityLabel" id="text-entity-LIBRO-751881da-053f-5673-b70b-33bddab46784-attr-10-type" x="0" y="0" transform="translate(5,223.5)" style="dominant-baseline: middle; font-size: 10.2px;">int</text><rect class="er attributeBoxEven" x="35.245819091796875" y="213" width="81.375" height="21"/><text class="er entityLabel" id="text-entity-LIBRO-751881da-053f-5673-b70b-33bddab46784-attr-10-name" x="0" y="0" transform="translate(40.245819091796875,223.5)" style="dominant-baseline: middle; font-size: 10.2px;">numPaginas</text><rect class="er attributeBoxEven" x="116.62081909179688" y="213" width="24.357086181640625" height="21"/><text class="er entityLabel" id="text-entity-LIBRO-751881da-053f-5673-b70b-33bddab46784-attr-10-key" x="0" y="0" transform="translate(121.62081909179688,223.5)" style="dominant-baseline: middle; font-size: 10.2px;"/></g><g id="entity-USUARIO-2dbea479-c464-5e02-9ddf-36fc948251bd" transform="translate(20,62 )"><rect class="er entityBox" x="0" y="0" width="132.79318237304688" height="150"/><text class="er entityLabel" id="text-entity-USUARIO-2dbea479-c464-5e02-9ddf-36fc948251bd" x="0" y="0" transform="translate(66.39659118652344,12)" style="dominant-baseline: middle; text-anchor: middle; font-size: 12px;">USUARIO</text><rect class="er attributeBoxOdd" x="0" y="24" width="35.245819091796875" height="21"/><text class="er entityLabel" id="text-entity-USUARIO-2dbea479-c464-5e02-9ddf-36fc948251bd-attr-1-type" x="0" y="0" transform="translate(5,34.5)" style="dominant-baseline: middle; font-size: 10.2px;">int</text><rect class="er attributeBoxOdd" x="35.245819091796875" y="24" width="73.19027709960938" height="21"/><text class="er entityLabel" id="text-entity-USUARIO-2dbea479-c464-5e02-9ddf-36fc948251bd-attr-1-name" x="0" y="0" transform="translate(40.245819091796875,34.5)" style="dominant-baseline: middle; font-size: 10.2px;">id</text><rect class="er attributeBoxOdd" x="108.43609619140625" y="24" width="24.357086181640625" height="21"/><text class="er entityLabel" id="text-entity-USUARIO-2dbea479-c464-5e02-9ddf-36fc948251bd-attr-1-key" x="0" y="0" transform="translate(113.43609619140625,34.5)" style="dominant-baseline: middle; font-size: 10.2px;">PK</text><rect class="er attributeBoxEven" x="0" y="45" width="35.245819091796875" height="21"/><text class="er entityLabel" id="text-entity-USUARIO-2dbea479-c464-5e02-9ddf-36fc948251bd-attr-2-type" x="0" y="0" transform="translate(5,55.5)" style="dominant-baseline: middle; font-size: 10.2px;">string</text><rect class="er attributeBoxEven" x="35.245819091796875" y="45" width="73.19027709960938" height="21"/><text class="er entityLabel" id="text-entity-USUARIO-2dbea479-c464-5e02-9ddf-36fc948251bd-attr-2-name" x="0" y="0" transform="translate(40.245819091796875,55.5)" style="dominant-baseline: middle; font-size: 10.2px;">nombre</text><rect class="er attributeBoxEven" x="108.43609619140625" y="45" width="24.357086181640625" height="21"/><text class="er entityLabel" id="text-entity-USUARIO-2dbea479-c464-5e02-9ddf-36fc948251bd-attr-2-key" x="0" y="0" transform="translate(113.43609619140625,55.5)" style="dominant-baseline: middle; font-size: 10.2px;"/><rect class="er attributeBoxOdd" x="0" y="66" width="35.245819091796875" height="21"/><text class="er entityLabel" id="text-entity-USUARIO-2dbea479-c464-5e02-9ddf-36fc948251bd-attr-3-type" x="0" y="0" transform="translate(5,76.5)" style="dominant-baseline: middle; font-size: 10.2px;">string</text><rect class="er attributeBoxOdd" x="35.245819091796875" y="66" width="73.19027709960938" height="21"/><text class="er entityLabel" id="text-entity-USUARIO-2dbea479-c464-5e02-9ddf-36fc948251bd-attr-3-name" x="0" y="0" transform="translate(40.245819091796875,76.5)" style="dominant-baseline: middle; font-size: 10.2px;">email</text><rect class="er attributeBoxOdd" x="108.43609619140625" y="66" width="24.357086181640625" height="21"/><text class="er entityLabel" id="text-entity-USUARIO-2dbea479-c464-5e02-9ddf-36fc948251bd-attr-3-key" x="0" y="0" transform="translate(113.43609619140625,76.5)" style="dominant-baseline: middle; font-size: 10.2px;">UK</text><rect class="er attributeBoxEven" x="0" y="87" width="35.245819091796875" height="21"/><text class="er entityLabel" id="text-entity-USUARIO-2dbea479-c464-5e02-9ddf-36fc948251bd-attr-4-type" x="0" y="0" transform="translate(5,97.5)" style="dominant-baseline: middle; font-size: 10.2px;">string</text><rect class="er attributeBoxEven" x="35.245819091796875" y="87" width="73.19027709960938" height="21"/><text class="er entityLabel" id="text-entity-USUARIO-2dbea479-c464-5e02-9ddf-36fc948251bd-attr-4-name" x="0" y="0" transform="translate(40.245819091796875,97.5)" style="dominant-baseline: middle; font-size: 10.2px;">password</text><rect class="er attributeBoxEven" x="108.43609619140625" y="87" width="24.357086181640625" height="21"/><text class="er entityLabel" id="text-entity-USUARIO-2dbea479-c464-5e02-9ddf-36fc948251bd-attr-4-key" x="0" y="0" transform="translate(113.43609619140625,97.5)" style="dominant-baseline: middle; font-size: 10.2px;"/><rect class="er attributeBoxOdd" x="0" y="108" width="35.245819091796875" height="21"/><text class="er entityLabel" id="text-entity-USUARIO-2dbea479-c464-5e02-9ddf-36fc948251bd-attr-5-type" x="0" y="0" transform="translate(5,118.5)" style="dominant-baseline: middle; font-size: 10.2px;">string</text><rect class="er attributeBoxOdd" x="35.245819091796875" y="108" width="73.19027709960938" height="21"/><text class="er entityLabel" id="text-entity-USUARIO-2dbea479-c464-5e02-9ddf-36fc948251bd-attr-5-name" x="0" y="0" transform="translate(40.245819091796875,118.5)" style="dominant-baseline: middle; font-size: 10.2px;">fotoPerfil</text><rect class="er attributeBoxOdd" x="108.43609619140625" y="108" width="24.357086181640625" height="21"/><text class="er entityLabel" id="text-entity-USUARIO-2dbea479-c464-5e02-9ddf-36fc948251bd-attr-5-key" x="0" y="0" transform="translate(113.43609619140625,118.5)" style="dominant-baseline: middle; font-size: 10.2px;"/><rect class="er attributeBoxEven" x="0" y="129" width="35.245819091796875" height="21"/><text class="er entityLabel" id="text-entity-USUARIO-2dbea479-c464-5e02-9ddf-36fc948251bd-attr-6-type" x="0" y="0" transform="translate(5,139.5)" style="dominant-baseline: middle; font-size: 10.2px;">long</text><rect class="er attributeBoxEven" x="35.245819091796875" y="129" width="73.19027709960938" height="21"/><text class="er entityLabel" id="text-entity-USUARIO-2dbea479-c464-5e02-9ddf-36fc948251bd-attr-6-name" x="0" y="0" transform="translate(40.245819091796875,139.5)" style="dominant-baseline: middle; font-size: 10.2px;">fechaRegistro</text><rect class="er attributeBoxEven" x="108.43609619140625" y="129" width="24.357086181640625" height="21"/><text class="er entityLabel" id="text-entity-USUARIO-2dbea479-c464-5e02-9ddf-36fc948251bd-attr-6-key" x="0" y="0" transform="translate(113.43609619140625,139.5)" style="dominant-baseline: middle; font-size: 10.2px;"/></g><g id="entity-USUARIOLIBRO-7f5b0ce8-1296-5c1d-b8f4-da6189c1fe4e" transform="translate(123.30001068115234,354 )"><rect class="er entityBox" x="0" y="0" width="163.07870483398438" height="255"/><text class="er entityLabel" id="text-entity-USUARIOLIBRO-7f5b0ce8-1296-5c1d-b8f4-da6189c1fe4e" x="0" y="0" transform="translate(81.53935241699219,12)" style="dominant-baseline: middle; text-anchor: middle; font-size: 12px;">USUARIO_LIBRO</text><rect class="er attributeBoxOdd" x="0" y="24" width="46.265625" height="21"/><text class="er entityLabel" id="text-entity-USUARIOLIBRO-7f5b0ce8-1296-5c1d-b8f4-da6189c1fe4e-attr-1-type" x="0" y="0" transform="translate(5,34.5)" style="dominant-baseline: middle; font-size: 10.2px;">int</text><rect class="er attributeBoxOdd" x="46.265625" y="24" width="93.01809692382812" height="21"/><text class="er entityLabel" id="text-entity-USUARIOLIBRO-7f5b0ce8-1296-5c1d-b8f4-da6189c1fe4e-attr-1-name" x="0" y="0" transform="translate(51.265625,34.5)" style="dominant-baseline: middle; font-size: 10.2px;">id</text><rect class="er attributeBoxOdd" x="139.28372192382812" y="24" width="23.79498291015625" height="21"/><text class="er entityLabel" id="text-entity-USUARIOLIBRO-7f5b0ce8-1296-5c1d-b8f4-da6189c1fe4e-attr-1-key" x="0" y="0" transform="translate(144.28372192382812,34.5)" style="dominant-baseline: middle; font-size: 10.2px;">PK</text><rect class="er attributeBoxEven" x="0" y="45" width="46.265625" height="21"/><text class="er entityLabel" id="text-entity-USUARIOLIBRO-7f5b0ce8-1296-5c1d-b8f4-da6189c1fe4e-attr-2-type" x="0" y="0" transform="translate(5,55.5)" style="dominant-baseline: middle; font-size: 10.2px;">int</text><rect class="er attributeBoxEven" x="46.265625" y="45" width="93.01809692382812" height="21"/><text class="er entityLabel" id="text-entity-USUARIOLIBRO-7f5b0ce8-1296-5c1d-b8f4-da6189c1fe4e-attr-2-name" x="0" y="0" transform="translate(51.265625,55.5)" style="dominant-baseline: middle; font-size: 10.2px;">usuarioId</text><rect class="er attributeBoxEven" x="139.28372192382812" y="45" width="23.79498291015625" height="21"/><text class="er entityLabel" id="text-entity-USUARIOLIBRO-7f5b0ce8-1296-5c1d-b8f4-da6189c1fe4e-attr-2-key" x="0" y="0" transform="translate(144.28372192382812,55.5)" style="dominant-baseline: middle; font-size: 10.2px;">FK</text><rect class="er attributeBoxOdd" x="0" y="66" width="46.265625" height="21"/><text class="er entityLabel" id="text-entity-USUARIOLIBRO-7f5b0ce8-1296-5c1d-b8f4-da6189c1fe4e-attr-3-type" x="0" y="0" transform="translate(5,76.5)" style="dominant-baseline: middle; font-size: 10.2px;">int</text><rect class="er attributeBoxOdd" x="46.265625" y="66" width="93.01809692382812" height="21"/><text class="er entityLabel" id="text-entity-USUARIOLIBRO-7f5b0ce8-1296-5c1d-b8f4-da6189c1fe4e-attr-3-name" x="0" y="0" transform="translate(51.265625,76.5)" style="dominant-baseline: middle; font-size: 10.2px;">libroId</text><rect class="er attributeBoxOdd" x="139.28372192382812" y="66" width="23.79498291015625" height="21"/><text class="er entityLabel" id="text-entity-USUARIOLIBRO-7f5b0ce8-1296-5c1d-b8f4-da6189c1fe4e-attr-3-key" x="0" y="0" transform="translate(144.28372192382812,76.5)" style="dominant-baseline: middle; font-size: 10.2px;">FK</text><rect class="er attributeBoxEven" x="0" y="87" width="46.265625" height="21"/><text class="er entityLabel" id="text-entity-USUARIOLIBRO-7f5b0ce8-1296-5c1d-b8f4-da6189c1fe4e-attr-4-type" x="0" y="0" transform="translate(5,97.5)" style="dominant-baseline: middle; font-size: 10.2px;">string</text><rect class="er attributeBoxEven" x="46.265625" y="87" width="93.01809692382812" height="21"/><text class="er entityLabel" id="text-entity-USUARIOLIBRO-7f5b0ce8-1296-5c1d-b8f4-da6189c1fe4e-attr-4-name" x="0" y="0" transform="translate(51.265625,97.5)" style="dominant-baseline: middle; font-size: 10.2px;">estadoLectura</text><rect class="er attributeBoxEven" x="139.28372192382812" y="87" width="23.79498291015625" height="21"/><text class="er entityLabel" id="text-entity-USUARIOLIBRO-7f5b0ce8-1296-5c1d-b8f4-da6189c1fe4e-attr-4-key" x="0" y="0" transform="translate(144.28372192382812,97.5)" style="dominant-baseline: middle; font-size: 10.2px;"/><rect class="er attributeBoxOdd" x="0" y="108" width="46.265625" height="21"/><text class="er entityLabel" id="text-entity-USUARIOLIBRO-7f5b0ce8-1296-5c1d-b8f4-da6189c1fe4e-attr-5-type" x="0" y="0" transform="translate(5,118.5)" style="dominant-baseline: middle; font-size: 10.2px;">boolean</text><rect class="er attributeBoxOdd" x="46.265625" y="108" width="93.01809692382812" height="21"/><text class="er entityLabel" id="text-entity-USUARIOLIBRO-7f5b0ce8-1296-5c1d-b8f4-da6189c1fe4e-attr-5-name" x="0" y="0" transform="translate(51.265625,118.5)" style="dominant-baseline: middle; font-size: 10.2px;">esFavorito</text><rect class="er attributeBoxOdd" x="139.28372192382812" y="108" width="23.79498291015625" height="21"/><text class="er entityLabel" id="text-entity-USUARIOLIBRO-7f5b0ce8-1296-5c1d-b8f4-da6189c1fe4e-attr-5-key" x="0" y="0" transform="translate(144.28372192382812,118.5)" style="dominant-baseline: middle; font-size: 10.2px;"/><rect class="er attributeBoxEven" x="0" y="129" width="46.265625" height="21"/><text class="er entityLabel" id="text-entity-USUARIOLIBRO-7f5b0ce8-1296-5c1d-b8f4-da6189c1fe4e-attr-6-type" x="0" y="0" transform="translate(5,139.5)" style="dominant-baseline: middle; font-size: 10.2px;">float</text><rect class="er attributeBoxEven" x="46.265625" y="129" width="93.01809692382812" height="21"/><text class="er entityLabel" id="text-entity-USUARIOLIBRO-7f5b0ce8-1296-5c1d-b8f4-da6189c1fe4e-attr-6-name" x="0" y="0" transform="translate(51.265625,139.5)" style="dominant-baseline: middle; font-size: 10.2px;">calificacion</text><rect class="er attributeBoxEven" x="139.28372192382812" y="129" width="23.79498291015625" height="21"/><text class="er entityLabel" id="text-entity-USUARIOLIBRO-7f5b0ce8-1296-5c1d-b8f4-da6189c1fe4e-attr-6-key" x="0" y="0" transform="translate(144.28372192382812,139.5)" style="dominant-baseline: middle; font-size: 10.2px;"/><rect class="er attributeBoxOdd" x="0" y="150" width="46.265625" height="21"/><text class="er entityLabel" id="text-entity-USUARIOLIBRO-7f5b0ce8-1296-5c1d-b8f4-da6189c1fe4e-attr-7-type" x="0" y="0" transform="translate(5,160.5)" style="dominant-baseline: middle; font-size: 10.2px;">long</text><rect class="er attributeBoxOdd" x="46.265625" y="150" width="93.01809692382812" height="21"/><text class="er entityLabel" id="text-entity-USUARIOLIBRO-7f5b0ce8-1296-5c1d-b8f4-da6189c1fe4e-attr-7-name" x="0" y="0" transform="translate(51.265625,160.5)" style="dominant-baseline: middle; font-size: 10.2px;">fechaAdicion</text><rect class="er attributeBoxOdd" x="139.28372192382812" y="150" width="23.79498291015625" height="21"/><text class="er entityLabel" id="text-entity-USUARIOLIBRO-7f5b0ce8-1296-5c1d-b8f4-da6189c1fe4e-attr-7-key" x="0" y="0" transform="translate(144.28372192382812,160.5)" style="dominant-baseline: middle; font-size: 10.2px;"/><rect class="er attributeBoxEven" x="0" y="171" width="46.265625" height="21"/><text class="er entityLabel" id="text-entity-USUARIOLIBRO-7f5b0ce8-1296-5c1d-b8f4-da6189c1fe4e-attr-8-type" x="0" y="0" transform="translate(5,181.5)" style="dominant-baseline: middle; font-size: 10.2px;">long</text><rect class="er attributeBoxEven" x="46.265625" y="171" width="93.01809692382812" height="21"/><text class="er entityLabel" id="text-entity-USUARIOLIBRO-7f5b0ce8-1296-5c1d-b8f4-da6189c1fe4e-attr-8-name" x="0" y="0" transform="translate(51.265625,181.5)" style="dominant-baseline: middle; font-size: 10.2px;">fechaInicioLectura</text><rect class="er attributeBoxEven" x="139.28372192382812" y="171" width="23.79498291015625" height="21"/><text class="er entityLabel" id="text-entity-USUARIOLIBRO-7f5b0ce8-1296-5c1d-b8f4-da6189c1fe4e-attr-8-key" x="0" y="0" transform="translate(144.28372192382812,181.5)" style="dominant-baseline: middle; font-size: 10.2px;"/><rect class="er attributeBoxOdd" x="0" y="192" width="46.265625" height="21"/><text class="er entityLabel" id="text-entity-USUARIOLIBRO-7f5b0ce8-1296-5c1d-b8f4-da6189c1fe4e-attr-9-type" x="0" y="0" transform="translate(5,202.5)" style="dominant-baseline: middle; font-size: 10.2px;">long</text><rect class="er attributeBoxOdd" x="46.265625" y="192" width="93.01809692382812" height="21"/><text class="er entityLabel" id="text-entity-USUARIOLIBRO-7f5b0ce8-1296-5c1d-b8f4-da6189c1fe4e-attr-9-name" x="0" y="0" transform="translate(51.265625,202.5)" style="dominant-baseline: middle; font-size: 10.2px;">fechaFinLectura</text><rect class="er attributeBoxOdd" x="139.28372192382812" y="192" width="23.79498291015625" height="21"/><text class="er entityLabel" id="text-entity-USUARIOLIBRO-7f5b0ce8-1296-5c1d-b8f4-da6189c1fe4e-attr-9-key" x="0" y="0" transform="translate(144.28372192382812,202.5)" style="dominant-baseline: middle; font-size: 10.2px;"/><rect class="er attributeBoxEven" x="0" y="213" width="46.265625" height="21"/><text class="er entityLabel" id="text-entity-USUARIOLIBRO-7f5b0ce8-1296-5c1d-b8f4-da6189c1fe4e-attr-10-type" x="0" y="0" transform="translate(5,223.5)" style="dominant-baseline: middle; font-size: 10.2px;">int</text><rect class="er attributeBoxEven" x="46.265625" y="213" width="93.01809692382812" height="21"/><text class="er entityLabel" id="text-entity-USUARIOLIBRO-7f5b0ce8-1296-5c1d-b8f4-da6189c1fe4e-attr-10-name" x="0" y="0" transform="translate(51.265625,223.5)" style="dominant-baseline: middle; font-size: 10.2px;">paginaActual</text><rect class="er attributeBoxEven" x="139.28372192382812" y="213" width="23.79498291015625" height="21"/><text class="er entityLabel" id="text-entity-USUARIOLIBRO-7f5b0ce8-1296-5c1d-b8f4-da6189c1fe4e-attr-10-key" x="0" y="0" transform="translate(144.28372192382812,223.5)" style="dominant-baseline: middle; font-size: 10.2px;"/><rect class="er attributeBoxOdd" x="0" y="234" width="46.265625" height="21"/><text class="er entityLabel" id="text-entity-USUARIOLIBRO-7f5b0ce8-1296-5c1d-b8f4-da6189c1fe4e-attr-11-type" x="0" y="0" transform="translate(5,244.5)" style="dominant-baseline: middle; font-size: 10.2px;">string</text><rect class="er attributeBoxOdd" x="46.265625" y="234" width="93.01809692382812" height="21"/><text class="er entityLabel" id="text-entity-USUARIOLIBRO-7f5b0ce8-1296-5c1d-b8f4-da6189c1fe4e-attr-11-name" x="0" y="0" transform="translate(51.265625,244.5)" style="dominant-baseline: middle; font-size: 10.2px;">notas</text><rect class="er attributeBoxOdd" x="139.28372192382812" y="234" width="23.79498291015625" height="21"/><text class="er entityLabel" id="text-entity-USUARIOLIBRO-7f5b0ce8-1296-5c1d-b8f4-da6189c1fe4e-attr-11-key" x="0" y="0" transform="translate(144.28372192382812,244.5)" style="dominant-baseline: middle; font-size: 10.2px;"/></g><rect class="er relationshipLabelBox" x="77.53643035888672" y="282.4699401855469" width="26.34765625" height="14"/><text class="er relationshipLabel" id="rel1" x="90.71025848388672" y="289.4699401855469" style="text-anchor: middle; dominant-baseline: middle; font-size: 12px;">tiene</text><rect class="er relationshipLabelBox" x="288.29833984375" y="303.08367919921875" width="53.69921875" height="14"/><text class="er relationshipLabel" id="rel2" x="315.14794921875" y="310.08367919921875" style="text-anchor: middle; dominant-baseline: middle; font-size: 12px;">pertenece</text></svg>